<?xml version="1.0"?>
<svg version="1.1" xmlns="http://www.w3.org/2000/svg" width="400px" height="200px" style=""><path fill="#" d="M27.05419921875,141.373046875l-11.859375-38.64404296875l-0.30322265625,0q0.64013671875,11.7919921875,0.64013671875,15.73388671875l0,22.91015625l-9.33251953125,0l0-49.2568359375l14.2177734375,0l11.6572265625,37.6669921875l0.2021484375,0l12.36474609375-37.6669921875l14.2177734375,0l0,49.2568359375l-9.73681640625,0l0-23.314453125q0-1.65087890625,0.050537109375-3.80712890625t0.454833984375-11.455078125l-0.30322265625,0l-12.70166015625,38.57666015625l-9.568359375,0z M90.790590820313,110.3095703125q-3.26806640625,0-5.12109375,2.072021484375t-2.12255859375,5.879150390625l14.419921875,0q-0.0673828125-3.80712890625-1.98779296875-5.879150390625t-5.1884765625-2.072021484375z M92.239321289063,142.046875q-9.0966796875,0-14.2177734375-5.02001953125t-5.12109375-14.2177734375q0-9.46728515625,4.733642578125-14.638916015625t13.089111328125-5.171630859375q7.98486328125,0,12.43212890625,4.54833984375t4.447265625,12.56689453125l0,4.986328125l-24.29150390625,0q0.16845703125,4.3798828125,2.59423828125,6.83935546875t6.8056640625,2.45947265625q3.40283203125,0,6.43505859375-0.70751953125t6.333984375-2.25732421875l0,7.951171875q-2.6953125,1.34765625-5.76123046875,2.004638671875t-7.4794921875,0.656982421875z M132.62756835938,142.046875q-6.63720703125,0-10.427490234375-5.15478515625t-3.790283203125-14.28515625q0-9.26513671875,3.857666015625-14.436767578125t10.629638671875-5.171630859375q7.10888671875,0,10.8486328125,5.525390625l0.3369140625,0q-0.77490234375-4.21142578125-0.77490234375-7.51318359375l0-12.0615234375l10.3095703125,0l0,52.423828125l-7.8837890625,0l-1.98779296875-4.88525390625l-0.43798828125,0q-3.50390625,5.55908203125-10.68017578125,5.55908203125z M136.23254882813,133.85986328125q3.94189453125,0,5.778076171875-2.291015625t2.004638671875-7.78271484375l0-1.11181640625q0-6.064453125-1.869873046875-8.6923828125t-6.081298828125-2.6279296875q-3.4365234375,0-5.340087890625,2.914306640625t-1.903564453125,8.473388671875t1.92041015625,8.338623046875t5.49169921875,2.779541015625z M168.66962402344,93.96923828125q0-5.02001953125,5.5927734375-5.02001953125t5.5927734375,5.02001953125q0,2.39208984375-1.398193359375,3.722900390625t-4.194580078125,1.330810546875q-5.5927734375,0-5.5927734375-5.0537109375z M179.38349121094,141.373046875l-10.27587890625,0l0-37.6669921875l10.27587890625,0l0,37.6669921875z"/><path fill="#348bc9" d="M221.2978515625,92.1162109375l10.54541015625,0l-16.74462890625,49.2568359375l-11.3876953125,0l-16.7109375-49.2568359375l10.54541015625,0l9.26513671875,29.3115234375q0.77490234375,2.59423828125,1.600341796875,6.047607421875t1.027587890625,4.801025390625q0.37060546875-3.099609375,2.52685546875-10.8486328125z M257.57574707031,110.3095703125q-3.26806640625,0-5.12109375,2.072021484375t-2.12255859375,5.879150390625l14.419921875,0q-0.0673828125-3.80712890625-1.98779296875-5.879150390625t-5.1884765625-2.072021484375z M259.02447753906,142.046875q-9.0966796875,0-14.2177734375-5.02001953125t-5.12109375-14.2177734375q0-9.46728515625,4.733642578125-14.638916015625t13.089111328125-5.171630859375q7.98486328125,0,12.43212890625,4.54833984375t4.447265625,12.56689453125l0,4.986328125l-24.29150390625,0q0.16845703125,4.3798828125,2.59423828125,6.83935546875t6.8056640625,2.45947265625q3.40283203125,0,6.43505859375-0.70751953125t6.333984375-2.25732421875l0,7.951171875q-2.6953125,1.34765625-5.76123046875,2.004638671875t-7.4794921875,0.656982421875z M308.50940429688,102.99853515625q2.0888671875,0,3.47021484375,0.30322265625l-0.77490234375,9.6357421875q-1.24658203125-0.3369140625-3.0322265625-0.3369140625q-4.9189453125,0-7.664794921875,2.52685546875t-2.745849609375,7.0751953125l0,19.17041015625l-10.27587890625,0l0-37.6669921875l7.78271484375,0l1.51611328125,6.333984375l0.50537109375,0q1.751953125-3.1669921875,4.733642578125-5.104248046875t6.485595703125-1.937255859375z M349.84101074219,130.1875q0,5.794921875-4.026123046875,8.8271484375t-12.044677734375,3.0322265625q-4.1103515625,0-7.0078125-0.555908203125t-5.42431640625-1.634033203125l0-8.490234375q2.86376953125,1.34765625,6.451904296875,2.25732421875t6.317138671875,0.90966796875q5.5927734375,0,5.5927734375-3.234375q0-1.212890625-0.7412109375-1.970947265625t-2.560546875-1.71826171875t-4.8515625-2.240478515625q-4.34619140625-1.8193359375-6.384521484375-3.369140625t-2.96484375-3.554443359375t-0.926513671875-4.935791015625q0-5.02001953125,3.891357421875-7.765869140625t11.033935546875-2.745849609375q6.8056640625,0,13.24072265625,2.96484375l-3.099609375,7.412109375q-2.830078125-1.212890625-5.28955078125-1.98779296875t-5.02001953125-0.77490234375q-4.54833984375,0-4.54833984375,2.45947265625q0,1.38134765625,1.465576171875,2.39208984375t6.418212890625,2.99853515625q4.41357421875,1.78564453125,6.46875,3.33544921875t3.0322265625,3.5712890625t0.97705078125,4.81787109375z M378.20142578125,110.3095703125q-3.26806640625,0-5.12109375,2.072021484375t-2.12255859375,5.879150390625l14.419921875,0q-0.0673828125-3.80712890625-1.98779296875-5.879150390625t-5.1884765625-2.072021484375z M379.65015625,142.046875q-9.0966796875,0-14.2177734375-5.02001953125t-5.12109375-14.2177734375q0-9.46728515625,4.733642578125-14.638916015625t13.089111328125-5.171630859375q7.98486328125,0,12.43212890625,4.54833984375t4.447265625,12.56689453125l0,4.986328125l-24.29150390625,0q0.16845703125,4.3798828125,2.59423828125,6.83935546875t6.8056640625,2.45947265625q3.40283203125,0,6.43505859375-0.70751953125t6.333984375-2.25732421875l0,7.951171875q-2.6953125,1.34765625-5.76123046875,2.004638671875t-7.4794921875,0.656982421875z"/></svg>
